<svg width="73" height="73" viewBox="0 0 73 73" fill="none" xmlns="http://www.w3.org/2000/svg">
<path d="M36.3144 57.1766C36.0698 57.1766 35.8353 57.0795 35.6624 56.9065C35.4894 56.7336 35.3923 56.4991 35.3923 56.2545V47.7161C35.3923 47.4716 35.4894 47.2371 35.6624 47.0641C35.8353 46.8912 36.0698 46.7941 36.3144 46.7941C36.5589 46.7941 36.7934 46.8912 36.9664 47.0641C37.1393 47.2371 37.2364 47.4716 37.2364 47.7161V56.2545C37.2364 56.4991 37.1393 56.7336 36.9664 56.9065C36.7934 57.0795 36.5589 57.1766 36.3144 57.1766Z" fill="#6F1C11"/>
<path d="M36.3144 60.33C32.8566 60.33 27.0107 59.62 27.0107 56.9552C27.0107 54.8437 30.699 54.0599 32.8566 53.7833C33.1012 53.7527 33.3478 53.8206 33.5424 53.9719C33.7369 54.1232 33.8634 54.3456 33.894 54.5901C33.9245 54.8347 33.8567 55.0813 33.7054 55.2759C33.5541 55.4704 33.3317 55.5969 33.0871 55.6275C30.3762 55.9778 29.113 56.6602 28.8733 56.9737C29.2697 57.5361 32.0175 58.5043 36.3144 58.5043C40.6113 58.5043 43.359 57.5361 43.7555 56.9737C43.5158 56.6602 42.2618 55.9778 39.5601 55.6367C39.3368 55.6074 39.132 55.4975 38.9843 55.3276C38.8365 55.1578 38.756 54.9397 38.7579 54.7146V54.5763C38.79 54.3343 38.9168 54.115 39.1104 53.9664C39.3039 53.8177 39.5486 53.7519 39.7906 53.7833C41.9759 54.0599 45.6365 54.8437 45.6365 56.9552C45.6181 59.62 39.7722 60.33 36.3144 60.33Z" fill="#6F1C11"/>
<path d="M36.3144 19.7311C32.8566 19.7311 27.0107 19.0211 27.0107 16.3563C27.0107 16.1117 27.1078 15.8772 27.2807 15.7043C27.4537 15.5314 27.6882 15.4342 27.9328 15.4342C28.1773 15.4342 28.4118 15.5314 28.5847 15.7043C28.7577 15.8772 28.8548 16.1117 28.8548 16.3563C29.1407 16.9095 31.9161 17.9238 36.3144 17.9238C40.7127 17.9238 43.359 17.0017 43.7555 16.3932C43.5158 16.0796 42.2618 15.3973 39.5601 15.0562C39.3368 15.0269 39.132 14.917 38.9843 14.7471C38.8365 14.5773 38.756 14.3592 38.7579 14.1341V14.005C38.79 13.763 38.9168 13.5437 39.1104 13.3951C39.3039 13.2464 39.5486 13.1806 39.7906 13.212C41.9759 13.4886 45.6365 14.2724 45.6365 16.3839C45.6181 19.0211 39.7722 19.7311 36.3144 19.7311Z" fill="#6F1C11"/>
<path d="M28.9194 32.0502C24.3091 32.0502 23.5898 30.0954 23.5898 28.9244C23.5898 27.7533 24.2814 25.8077 28.9194 25.8077C32.368 25.8077 36.5726 28.0207 36.7478 28.1129C36.895 28.1913 37.0182 28.3082 37.1043 28.4511C37.1904 28.594 37.2361 28.7575 37.2365 28.9244C37.2377 29.0927 37.1929 29.2582 37.1067 29.4029C37.0206 29.5476 36.8964 29.6659 36.7478 29.745C36.5726 29.8372 32.368 32.0502 28.9194 32.0502ZM28.9194 27.6519C28.0988 27.6519 25.434 27.7441 25.434 28.9244C25.434 30.1046 28.0988 30.206 28.9194 30.206C30.7129 30.0949 32.4715 29.6607 34.1107 28.9244C32.4695 28.1953 30.7117 27.7644 28.9194 27.6519Z" fill="#6F1C11"/>
<path d="M36.3144 29.8464C36.1096 29.8454 35.9109 29.7762 35.7497 29.6498C35.5886 29.5233 35.4741 29.3467 35.4244 29.148C35.3748 28.9493 35.3927 28.7396 35.4754 28.5522C35.558 28.3648 35.7008 28.2102 35.8811 28.1129C36.0562 28.0207 40.2609 25.8077 43.7094 25.8077C48.3198 25.8077 49.039 27.7625 49.039 28.9244C49.039 29.1689 48.9419 29.4034 48.769 29.5764C48.596 29.7493 48.3615 29.8464 48.117 29.8464C47.8724 29.8464 47.6379 29.7493 47.465 29.5764C47.292 29.4034 47.1949 29.1689 47.1949 28.9244C47.1949 27.7441 44.5301 27.6519 43.7094 27.6519C40.7219 27.6519 36.7847 29.7173 36.7478 29.745C36.6138 29.8137 36.465 29.8485 36.3144 29.8464Z" fill="#6F1C11"/>
<path d="M36.3145 45.5123C34.2517 45.5129 32.2174 45.0298 30.3751 44.1018C28.5327 43.1739 26.9336 41.8269 25.7061 40.169C24.4787 38.5111 23.657 36.5886 23.3071 34.5556C22.9572 32.5227 23.0887 30.436 23.6913 28.4631L27.1307 16.1074C27.1558 15.983 27.2064 15.8652 27.2792 15.7614C27.352 15.6575 27.4454 15.5697 27.5537 15.5036C27.662 15.4375 27.7827 15.3944 27.9083 15.3771C28.034 15.3597 28.1619 15.3685 28.284 15.4029C28.4061 15.4372 28.5198 15.4964 28.618 15.5767C28.7162 15.657 28.7968 15.7567 28.8547 15.8695C28.9126 15.9824 28.9466 16.106 28.9546 16.2326C28.9626 16.3592 28.9443 16.4861 28.901 16.6053L25.4617 28.9795C24.9445 30.6762 24.832 32.4704 25.1335 34.2184C25.4349 35.9663 26.1418 37.6193 27.1975 39.0447C28.2531 40.4702 29.6281 41.6283 31.2122 42.4264C32.7963 43.2244 34.5454 43.6401 36.3191 43.6401C38.0929 43.6401 39.8419 43.2244 41.426 42.4264C43.0101 41.6283 44.3851 40.4702 45.4407 39.0447C46.4964 37.6193 47.2033 35.9663 47.5047 34.2184C47.8061 32.4704 47.6937 30.6762 47.1765 28.9795L43.7372 16.6053C43.6939 16.4861 43.6756 16.3592 43.6836 16.2326C43.6916 16.106 43.7256 15.9824 43.7835 15.8695C43.8414 15.7567 43.922 15.657 44.0202 15.5767C44.1184 15.4964 44.2321 15.4372 44.3542 15.4029C44.4763 15.3685 44.6042 15.3597 44.7299 15.3771C44.8555 15.3944 44.9763 15.4375 45.0845 15.5036C45.1928 15.5697 45.2862 15.6575 45.359 15.7614C45.4318 15.8652 45.4824 15.983 45.5076 16.1074L48.9469 28.4631C49.5494 30.436 49.6811 32.5227 49.3311 34.5556C48.9812 36.5886 48.1595 38.5111 46.9321 40.169C45.7046 41.8269 44.1054 43.1739 42.2631 44.1018C40.4208 45.0298 38.3866 45.5129 36.3237 45.5123H36.3145Z" fill="#6F1C11"/>
<path d="M27.9235 17.3061C27.679 17.3061 27.4445 17.2089 27.2715 17.036C27.0986 16.8631 27.0015 16.6285 27.0015 16.384C27.0015 13.71 32.8474 13 36.3052 13C36.5497 13 36.7843 13.0971 36.9572 13.2701C37.1301 13.443 37.2272 13.6775 37.2272 13.9221C37.2272 14.1666 37.1301 14.4011 36.9572 14.5741C36.7843 14.747 36.5497 14.8441 36.3052 14.8441C31.8608 14.8441 29.0853 15.8769 28.8364 16.4393C28.8224 16.6726 28.7203 16.8918 28.5509 17.0527C28.3814 17.2136 28.1572 17.3041 27.9235 17.3061Z" fill="#6F1C11"/>
<path d="M48.117 28.9243C48.117 27.7164 46.9736 26.7297 43.7095 26.7297C40.4453 26.7297 36.3329 28.9243 36.3329 28.9243C36.3329 28.9243 32.1928 31.128 28.9563 31.128C25.7198 31.128 24.5488 30.1414 24.5488 28.9243L24.6041 28.7306C24.0411 30.5672 23.9167 32.5102 24.2409 34.4036C24.5651 36.2969 25.3289 38.0878 26.4709 39.6324C27.6129 41.1769 29.1013 42.4321 30.8165 43.2971C32.5317 44.162 34.4258 44.6125 36.3467 44.6125C38.2676 44.6125 40.1618 44.162 41.8769 43.2971C43.5921 42.4321 45.0805 41.1769 46.2225 39.6324C47.3645 38.0878 48.1283 36.2969 48.4525 34.4036C48.7767 32.5102 48.6523 30.5672 48.0893 28.7306C48.0893 28.7306 48.117 30.1414 48.117 28.9243Z" fill="#6F1C11"/>
<path d="M36.3145 45.5217C34.2519 45.5188 32.2186 45.0332 30.3774 44.1035C28.5362 43.1739 26.9383 41.8262 25.7114 40.1682C24.4845 38.5102 23.6627 36.5881 23.3119 34.5556C22.9612 32.523 23.0911 30.4366 23.6913 28.4633C23.7755 28.2477 23.9376 28.0717 24.1456 27.9701C24.3536 27.8686 24.5921 27.8489 24.8139 27.9151C25.0356 27.9813 25.2244 28.1285 25.3427 28.3274C25.461 28.5263 25.5002 28.7624 25.4524 28.9889V29.035C25.6092 30.123 28.1357 30.206 28.9286 30.206C31.9069 30.206 35.8534 28.1314 35.8903 28.1129C35.9272 28.0945 40.2702 25.8077 43.7187 25.8077C48.1723 25.8077 48.9837 27.6519 49.0391 28.786C49.5832 30.7466 49.667 32.8064 49.2838 34.8046C48.9005 36.8029 48.0606 38.6856 46.8297 40.3057C45.5988 41.9258 44.0101 43.2395 42.1877 44.1443C40.3652 45.0491 38.3584 45.5205 36.3237 45.5217H36.3145ZM25.0098 31.2664C24.8566 32.9262 25.0708 34.5994 25.6373 36.167C26.2037 37.7347 27.1084 39.1583 28.2872 40.3369C29.4659 41.5154 30.8898 42.4198 32.4576 42.9859C34.0254 43.552 35.6986 43.7658 37.3583 43.6123C39.0181 43.4587 40.6236 42.9414 42.0609 42.0973C43.4982 41.2531 44.7319 40.1028 45.6744 38.728C46.617 37.3532 47.2451 35.7877 47.5143 34.1427C47.7834 32.4978 47.687 30.8137 47.2318 29.2102C47.2318 29.2102 47.2318 29.2102 47.2318 29.1549C47.2134 29.1035 47.1981 29.0512 47.1857 28.9981C47.1589 28.8829 47.1589 28.763 47.1857 28.6477C46.7984 27.7257 44.5025 27.6519 43.7556 27.6519C40.7681 27.6519 36.8308 29.7173 36.7939 29.745C36.757 29.7727 32.4141 32.0502 28.9655 32.0502C27.6011 32.1393 26.2372 31.869 25.0098 31.2664Z" fill="#6F1C11"/>
<path d="M36.3144 41.5937C36.1309 41.5937 35.955 41.5208 35.8254 41.3911C35.6957 41.2614 35.6228 41.0855 35.6228 40.9021C35.6228 40.7187 35.6957 40.5428 35.8254 40.4131C35.955 40.2834 36.1309 40.2106 36.3144 40.2106C38.1765 40.2114 39.9789 39.5538 41.403 38.3541C42.8271 37.1544 43.7812 35.4898 44.0967 33.6546C44.1272 33.4736 44.2284 33.3122 44.378 33.2059C44.5276 33.0995 44.7133 33.057 44.8942 33.0875C45.0752 33.1181 45.2366 33.2193 45.343 33.3689C45.4493 33.5185 45.4919 33.7042 45.4613 33.8851C45.1018 36.0476 43.9837 38.0112 42.3074 39.4239C40.6312 40.8365 38.5065 41.6058 36.3144 41.5937ZM44.779 31.5246C44.6166 31.5231 44.4598 31.4653 44.3354 31.361C44.2109 31.2568 44.1266 31.1125 44.0967 30.9529C44.0967 30.8238 44.0505 30.704 44.0229 30.5749C43.9837 30.3951 44.0176 30.2072 44.1171 30.0524C44.2165 29.8977 44.3733 29.7888 44.5531 29.7496C44.7328 29.7105 44.9207 29.7444 45.0755 29.8438C45.2303 29.9433 45.3392 30.1001 45.3783 30.2798L45.4613 30.7132C45.4772 30.8028 45.4753 30.8947 45.4556 30.9836C45.4359 31.0725 45.3989 31.1565 45.3466 31.2311C45.2944 31.3056 45.2279 31.3691 45.1511 31.4179C45.0743 31.4667 44.9885 31.4998 44.8989 31.5154L44.779 31.5246Z" fill="white"/>
<circle cx="36.5" cy="36.5" r="36" stroke="#6F1C11"/>
</svg>
