<svg width="319" height="105" viewBox="0 0 319 105" fill="none" xmlns="http://www.w3.org/2000/svg">
<g clip-path="url(#clip0_8_6989)">
<path d="M139.619 48.7984H132.995L131.84 52.5418H126.675L134.028 32.4877H138.574L145.982 52.5418H140.792L139.619 48.7984ZM134.15 45.0671H138.458L136.295 38.1089L134.15 45.0671Z" fill="white"/>
<path d="M155.201 32.4938L159.673 46.4709L164.14 32.4938H170.502V52.5479H165.641V47.8686L166.109 38.2791L161.247 52.5479H158.081L153.219 38.2669L153.687 47.8686V52.5479H148.826V32.4938H155.201Z" fill="white"/>
<path d="M187.415 44.034H179.812V48.8227H188.794V52.5418H174.981V32.4877H188.818V36.219H179.812V40.4729H187.415V44.034Z" fill="white"/>
<path d="M199.623 45.4499H197.035V52.5418H192.173V32.4877H200.073C202.455 32.4877 204.327 33.0103 205.652 34.0677C206.319 34.599 206.85 35.2822 207.2 36.0602C207.55 36.8382 207.709 37.6885 207.663 38.5404C207.71 39.7512 207.417 40.9509 206.819 42.0043C206.17 42.9913 205.247 43.7667 204.163 44.2345L208.35 52.3291V52.5357H203.172L199.623 45.4499ZM197.035 41.7308H200.073C200.45 41.7588 200.828 41.7091 201.184 41.5847C201.541 41.4603 201.868 41.2638 202.145 41.0076C202.389 40.7328 202.576 40.4126 202.696 40.0654C202.816 39.7181 202.866 39.3507 202.844 38.984C202.886 38.2391 202.633 37.5078 202.139 36.9482C201.865 36.6888 201.539 36.4894 201.184 36.3628C200.828 36.2362 200.45 36.1851 200.073 36.2129H197.035V41.7308Z" fill="white"/>
<path d="M217.131 52.5418H212.312V32.4877H217.131V52.5418Z" fill="white"/>
<path d="M238.121 45.7538C238.087 47.0651 237.696 48.3423 236.991 49.4486C236.283 50.5383 235.277 51.4012 234.092 51.9341C232.758 52.5419 231.304 52.843 229.838 52.8152C227.201 52.8152 225.127 51.9584 223.615 50.2447C222.104 48.531 221.347 46.1002 221.343 42.9523V41.9617C221.304 40.1876 221.655 38.4265 222.37 36.8023C222.995 35.3969 224.023 34.2084 225.323 33.3871C226.663 32.5646 228.211 32.1429 229.784 32.1717C232.214 32.1717 234.169 32.8118 235.648 34.092C236.399 34.7621 237.009 35.5754 237.442 36.4843C237.875 37.3932 238.123 38.3794 238.17 39.3851H233.351C233.38 38.908 233.313 38.43 233.154 37.9792C232.995 37.5283 232.748 37.1138 232.427 36.7598C231.679 36.1685 230.734 35.8819 229.784 35.9576C229.262 35.9221 228.741 36.0288 228.275 36.2664C227.81 36.504 227.417 36.8636 227.14 37.3067C226.581 38.2061 226.283 39.6464 226.259 41.6214V43.0556C226.259 45.1947 226.526 46.7241 227.061 47.6437C227.351 48.1074 227.765 48.4813 228.255 48.7238C228.745 48.9663 229.294 49.0679 229.838 49.0171C230.755 49.081 231.663 48.8015 232.385 48.2332C232.704 47.9048 232.952 47.5139 233.113 47.0852C233.274 46.6564 233.344 46.199 233.32 45.7416L238.121 45.7538Z" fill="white"/>
<path d="M253.21 48.7984H246.58L245.426 52.5418H240.26L247.62 32.4877H252.159L259.567 52.5418H254.377L253.21 48.7984ZM247.741 45.0671H252.05L249.905 38.1089L247.741 45.0671Z" fill="white"/>
<path d="M279.184 52.5418H274.377L267.273 40.0657V52.5418H262.411V32.4877H267.273L274.364 44.9638V32.4938H279.184V52.5418Z" fill="white"/>
<path d="M138.574 81.0551C138.589 80.7394 138.529 80.4246 138.398 80.1371C138.267 79.8495 138.069 79.5975 137.82 79.4021C137.01 78.8624 136.12 78.4523 135.183 78.1867C134.13 77.8513 133.1 77.4452 132.102 76.9713C129.501 75.6951 128.202 73.9409 128.206 71.7086C128.19 70.6476 128.53 69.6118 129.173 68.7673C129.891 67.8698 130.841 67.185 131.92 66.7862C133.195 66.2956 134.552 66.0542 135.918 66.0752C137.249 66.0553 138.568 66.3184 139.789 66.847C140.873 67.3065 141.8 68.0707 142.457 69.0469C143.094 70.0124 143.424 71.1477 143.405 72.3042H138.586C138.607 71.9519 138.551 71.5992 138.422 71.2707C138.293 70.9423 138.094 70.6458 137.839 70.4021C137.269 69.929 136.542 69.6881 135.803 69.7275C135.078 69.6863 134.359 69.8872 133.761 70.2988C133.524 70.4564 133.33 70.6716 133.199 70.9244C133.067 71.1772 133.002 71.4592 133.009 71.744C133.017 72.0288 133.096 72.307 133.24 72.5527C133.385 72.7985 133.589 73.0036 133.834 73.1489C134.729 73.7277 135.709 74.1643 136.739 74.4433C137.925 74.7959 139.07 75.2746 140.154 75.8714C142.325 77.1151 143.409 78.8369 143.405 81.0368C143.436 81.834 143.272 82.6267 142.927 83.3459C142.582 84.0652 142.066 84.689 141.424 85.1631C140.099 86.1638 138.286 86.6641 135.985 86.6641C134.47 86.6858 132.967 86.3898 131.573 85.7951C130.364 85.2939 129.329 84.4486 128.595 83.3643C127.923 82.3201 127.576 81.0996 127.599 79.8579H132.46C132.422 80.2909 132.477 80.727 132.622 81.137C132.766 81.5469 132.997 81.9209 133.299 82.234C133.852 82.7444 134.751 82.9997 136.003 82.9997C136.673 83.0373 137.336 82.856 137.893 82.4831C138.115 82.3187 138.292 82.1026 138.411 81.8537C138.53 81.6047 138.586 81.3306 138.574 81.0551Z" fill="white"/>
<path d="M163.034 70.0678H157.018V86.3846H152.186V70.0678H146.279V66.3365H163.034V70.0678Z" fill="white"/>
<path d="M178.919 77.8767H171.317V82.6654H180.299V86.3846H166.486V66.3304H180.323V70.0617H171.317V74.2853H178.919V77.8767Z" fill="white"/>
<path d="M195.066 82.6411H188.442L187.311 86.3846H182.152L189.505 66.3304H193.996L201.404 86.3846H196.208L195.066 82.6411ZM189.596 78.9098H193.905L191.748 71.9517L189.596 78.9098Z" fill="white"/>
<path d="M211.115 78.9099L209.128 81.0855V86.3725H204.327V66.3184H209.158V75.1604L210.842 72.608L215.162 66.3184H221.142L214.336 75.2029L221.112 86.3846H215.381L211.115 78.9099Z" fill="white"/>
<path d="M240.503 86.3846H235.696V78.0105H228.58V86.3846H223.719V66.3304H228.58V74.2913H235.696V66.3365H240.503V86.3846Z" fill="white"/>
<path d="M261.949 76.7707C261.978 78.5581 261.6 80.3287 260.843 81.9484C260.179 83.3856 259.105 84.5947 257.756 85.4244C256.378 86.2472 254.797 86.6682 253.192 86.6398C251.598 86.6717 250.026 86.266 248.647 85.4669C247.312 84.6666 246.238 83.4974 245.553 82.1003C244.809 80.5343 244.427 78.8207 244.435 77.0868V75.9625C244.4 74.1693 244.77 72.3912 245.517 70.7606C246.184 69.3213 247.263 68.1118 248.616 67.2845C250.005 66.461 251.596 66.0402 253.21 66.0691C254.809 66.0435 256.383 66.4644 257.756 67.2845C259.101 68.1099 260.18 69.3065 260.861 70.7302C261.624 72.3332 262.006 74.0904 261.98 75.8653L261.949 76.7707ZM257.039 75.9321C257.039 73.9389 256.705 72.4257 256.036 71.3926C255.741 70.9034 255.321 70.5019 254.819 70.2295C254.317 69.9571 253.751 69.8236 253.18 69.843C250.749 69.843 249.469 71.6661 249.339 75.3123V76.7829C249.339 78.7519 249.667 80.259 250.318 81.3164C250.613 81.82 251.04 82.2334 251.553 82.5119C252.066 82.7904 252.645 82.9233 253.229 82.8964C253.795 82.9136 254.355 82.7783 254.852 82.5046C255.348 82.2309 255.761 81.8289 256.048 81.3407C256.711 80.3076 257.045 78.8126 257.057 76.868L257.039 75.9321Z" fill="white"/>
<path d="M281.578 66.3365V79.4568C281.613 80.8067 281.285 82.1412 280.63 83.3218C279.996 84.4096 279.043 85.277 277.901 85.8072C276.584 86.4051 275.148 86.696 273.702 86.658C271.271 86.658 269.349 86.026 267.935 84.762C267.225 84.0981 266.666 83.2897 266.295 82.3913C265.923 81.4929 265.749 80.5254 265.784 79.554V66.3365H270.645V79.6512C270.702 81.843 271.715 82.9409 273.684 82.945C274.099 82.9746 274.517 82.9164 274.908 82.774C275.3 82.6316 275.657 82.4082 275.957 82.1185C276.473 81.5655 276.728 80.6722 276.728 79.4325V66.3365H281.578Z" fill="white"/>
<path d="M296.351 81.055C296.365 80.7395 296.304 80.4253 296.173 80.138C296.042 79.8507 295.845 79.5985 295.597 79.402C294.787 78.8623 293.897 78.4522 292.96 78.1866C291.907 77.8512 290.878 77.4451 289.879 76.9712C287.278 75.6951 285.978 73.9408 285.978 71.7086C285.963 70.6469 286.306 69.6111 286.95 68.7673C287.669 67.8698 288.618 67.1849 289.697 66.7862C290.97 66.2961 292.325 66.0548 293.689 66.0752C295.022 66.0551 296.343 66.3182 297.566 66.847C298.647 67.3112 299.573 68.0744 300.234 69.0468C300.871 70.0123 301.201 71.1476 301.182 72.3041H296.363C296.383 71.9513 296.326 71.5984 296.196 71.2699C296.066 70.9414 295.866 70.6452 295.61 70.402C295.043 69.9277 294.318 69.6866 293.58 69.7274C292.855 69.6862 292.136 69.8872 291.538 70.2987C291.303 70.4607 291.112 70.6778 290.98 70.931C290.849 71.1842 290.782 71.4658 290.784 71.7511C290.801 72.033 290.885 72.3069 291.028 72.55C291.172 72.7931 291.372 72.9984 291.611 73.1488C292.507 73.7276 293.486 74.1643 294.516 74.4432C295.695 74.7982 296.834 75.2768 297.913 75.8713C300.084 77.115 301.168 78.8369 301.164 81.0367C301.195 81.8339 301.031 82.6267 300.686 83.3459C300.34 84.0651 299.825 84.6889 299.183 85.163C297.858 86.1637 296.035 86.664 293.714 86.664C292.196 86.6851 290.692 86.3891 289.296 85.795C288.089 85.2928 287.056 84.4476 286.324 83.3642C285.649 82.3213 285.302 81.0999 285.327 79.8578H290.189C290.152 80.2902 290.207 80.7254 290.351 81.135C290.494 81.5445 290.723 81.919 291.021 82.2339C291.8 82.814 292.765 83.0866 293.732 82.9996C294.401 83.0372 295.065 82.8559 295.622 82.4831C295.851 82.3233 296.038 82.1094 296.165 81.8603C296.292 81.6112 296.356 81.3346 296.351 81.055Z" fill="white"/>
<path d="M317.505 77.8767H309.903V82.6654H318.885V86.3846H305.072V66.3304H318.909V70.0617H309.903V74.2853H317.505V77.8767Z" fill="white"/>
<path d="M131.136 102.361C131.143 102.21 131.115 102.06 131.053 101.922C130.99 101.785 130.896 101.664 130.777 101.571C130.377 101.314 129.938 101.123 129.477 101.006C128.952 100.869 128.447 100.665 127.976 100.398C127.659 100.229 127.394 99.9779 127.208 99.6711C127.022 99.3642 126.922 99.0129 126.918 98.654C126.914 98.3536 126.982 98.0566 127.115 97.7872C127.248 97.5179 127.443 97.2839 127.684 97.1044C128.257 96.681 128.959 96.4665 129.671 96.4967C130.169 96.4893 130.663 96.5909 131.117 96.7945C131.525 96.9803 131.873 97.2773 132.12 97.6513C132.357 98.0124 132.481 98.4352 132.479 98.8667H131.136C131.145 98.6894 131.116 98.512 131.05 98.3472C130.984 98.1824 130.882 98.034 130.753 97.9126C130.442 97.6685 130.053 97.5473 129.659 97.5723C129.295 97.5497 128.934 97.648 128.632 97.8519C128.512 97.9449 128.417 98.0651 128.354 98.2026C128.29 98.34 128.261 98.4906 128.267 98.6419C128.269 98.7846 128.306 98.9248 128.375 99.0499C128.444 99.1749 128.543 99.2811 128.662 99.359C129.064 99.6104 129.503 99.797 129.963 99.912C130.474 100.049 130.964 100.253 131.421 100.52C131.752 100.711 132.03 100.983 132.229 101.31C132.405 101.629 132.493 101.99 132.485 102.355C132.497 102.653 132.436 102.95 132.306 103.219C132.177 103.488 131.984 103.722 131.743 103.898C131.153 104.313 130.44 104.517 129.72 104.476C129.187 104.482 128.659 104.377 128.17 104.166C127.733 103.982 127.353 103.684 127.07 103.303C126.806 102.928 126.668 102.479 126.675 102.021H128.024C128.013 102.213 128.047 102.405 128.123 102.583C128.199 102.76 128.315 102.917 128.462 103.042C128.826 103.306 129.271 103.435 129.72 103.406C130.094 103.435 130.468 103.334 130.777 103.121C130.893 103.031 130.985 102.916 131.048 102.784C131.11 102.652 131.14 102.507 131.136 102.361Z" fill="white"/>
<path d="M150.242 97.6757H147.811V104.36H146.468V97.6757H144.067V96.5879H150.242V97.6757Z" fill="white"/>
<path d="M166.735 100.89H163.538V103.285H167.257V104.36H162.171V96.5879H167.257V97.6757H163.563V99.8208H166.759L166.735 100.89Z" fill="white"/>
<path d="M183.665 102.549H180.627L180.019 104.372H178.609L181.55 96.6H182.766L185.713 104.372H184.303L183.665 102.549ZM181.034 101.462H183.288L182.158 98.2347L181.034 101.462Z" fill="white"/>
<path d="M199.763 101.006L198.858 101.936V104.366H197.509V96.5879H198.858V100.234L199.605 99.3104L201.878 96.5879H203.513L200.681 100.034L203.719 104.36H202.115L199.763 101.006Z" fill="white"/>
<path d="M228.696 102.264C228.695 101.912 228.797 101.568 228.987 101.273C229.312 100.855 229.705 100.493 230.148 100.204C229.908 99.9044 229.704 99.5781 229.54 99.2314C229.373 98.8667 229.319 98.4599 229.386 98.0641C229.453 97.6683 229.638 97.3021 229.917 97.0133C230.119 96.8297 230.355 96.6879 230.611 96.5961C230.868 96.5043 231.14 96.4643 231.412 96.4785C231.923 96.4607 232.421 96.639 232.804 96.9768C232.974 97.1299 233.111 97.3174 233.204 97.5268C233.297 97.7362 233.345 97.963 233.345 98.1922C233.348 98.5067 233.264 98.816 233.102 99.0856C232.891 99.4093 232.616 99.6864 232.293 99.8998L231.765 100.283L233.266 102.057C233.489 101.615 233.601 101.125 233.594 100.629H234.712C234.748 101.467 234.511 102.295 234.037 102.987L235.18 104.336H233.679L233.235 103.82C232.661 104.237 231.964 104.451 231.254 104.427C230.592 104.459 229.942 104.242 229.431 103.82C229.201 103.63 229.016 103.393 228.889 103.124C228.762 102.855 228.696 102.561 228.696 102.264ZM231.272 103.437C231.716 103.428 232.143 103.272 232.488 102.993L230.786 100.994L230.622 101.109C230.44 101.233 230.29 101.399 230.184 101.592C230.079 101.785 230.021 102.001 230.014 102.221C230.008 102.383 230.036 102.545 230.096 102.695C230.155 102.846 230.246 102.983 230.361 103.096C230.608 103.326 230.936 103.448 231.272 103.437ZM230.555 98.4231C230.612 98.8486 230.804 99.2447 231.102 99.5535L231.71 99.1463L231.874 99.0126C231.983 98.92 232.069 98.8042 232.127 98.6738C232.185 98.5434 232.212 98.4017 232.208 98.2591C232.209 98.1606 232.188 98.0631 232.149 97.9731C232.109 97.883 232.05 97.8024 231.977 97.7364C231.896 97.6609 231.8 97.6031 231.696 97.5665C231.591 97.5298 231.48 97.5153 231.37 97.5238C231.256 97.5179 231.142 97.5378 231.037 97.582C230.931 97.6262 230.838 97.6935 230.762 97.779C230.614 97.9598 230.54 98.19 230.555 98.4231Z" fill="white"/>
<path d="M266.72 102.44L267.935 96.5879H269.272L267.449 104.36H266.154L264.678 98.6844L263.165 104.36H261.87L260.047 96.5879H261.451L262.666 102.428L264.149 96.5879H265.279L266.72 102.44Z" fill="white"/>
<path d="M282.611 104.36H281.262V96.5879H282.611V104.36Z" fill="white"/>
<path d="M301.377 104.36H300.028L296.558 98.8485V104.36H295.209V96.5879H296.558L300.04 102.124V96.5879H301.377V104.36Z" fill="white"/>
<path d="M318.459 100.89H315.263V103.285H319V104.36H313.914V96.5879H318.964V97.6757H315.263V99.8208H318.459V100.89Z" fill="white"/>
<path fill-rule="evenodd" clip-rule="evenodd" d="M25.5052 52.961C25.8837 53.5157 26.3196 54.029 26.8057 54.4925C27.1647 54.8404 27.542 55.169 27.936 55.4769C28.6895 56.0544 29.4882 56.5706 30.3242 57.0205C33.6919 58.7882 37.3727 59.8803 41.1595 60.2352C44.9488 60.6337 48.7779 60.4058 52.4931 59.5607C54.5571 59.0883 56.5716 58.4209 58.5093 57.5674C60.7639 56.5708 65.4068 56.5039 69.9341 56.4371C75.6465 56.352 81.6688 56.273 87.0044 53.1251C89.5811 51.6059 91.6655 49.3635 89.3137 47.0481C85.9531 43.6632 77.3177 43.0555 72.4561 42.9704C68.427 39.4458 56.5708 38.2182 50.8827 38.0116C47.0056 37.8779 36.6929 37.6166 34.0373 41.433C31.4606 42.4175 29.0298 43.3108 27.0791 45.3648C25.256 47.2912 23.7368 50.3236 25.4991 52.961H25.5052ZM50.7916 64.1367C50.5036 64.1882 50.2292 64.2984 49.9857 64.4604C49.7421 64.6225 49.5344 64.8329 49.3756 65.0786C49.0232 65.6012 49.0718 66.0266 49.4972 66.0266C49.7859 65.9751 50.0608 65.8642 50.3045 65.701C50.5482 65.5379 50.7555 65.3259 50.9131 65.0786C51.2716 64.562 51.217 64.1367 50.7916 64.1367ZM62.8423 48.9928C63.7416 49.0657 63.5553 49.3148 62.2832 49.7402C59.9678 50.512 58.0293 48.7315 61.4385 48.3425C63.4965 48.1035 63.9645 48.3203 62.8423 48.9928ZM25.6632 56.1028C29.2547 59.5971 35.0947 61.5721 40.722 62.1798C46.9197 62.8502 53.1851 61.8908 58.8983 59.3966C60.8612 58.5276 65.3521 58.4607 69.7214 58.3939C75.7316 58.3088 81.9909 58.163 87.5757 54.8631C88.7234 54.2123 89.7511 53.3696 90.6142 52.3716C90.1766 59.1474 91.4771 58.3331 87.8187 60.9158C82.6715 64.562 75.6283 64.7018 69.8612 64.7869C65.3399 64.8537 60.691 64.9267 58.4364 65.9172C55.8484 67.0686 53.1242 67.8854 50.3297 68.348C40.4121 69.9645 23.7854 68.6458 24.0406 54.1582C24.6443 59.0927 26.7874 62.4533 30.4701 64.2399C27.5653 62.4655 25.9366 59.7308 25.651 56.1089L25.6632 56.1028ZM89.7877 54.1157V57.8956C88.4629 59.9212 85.7282 61.4608 81.5837 62.5141C83.2449 61.9152 84.7352 60.9204 85.9253 59.6158C87.1155 58.3113 87.9698 56.7363 88.4143 55.0272L89.812 54.1157H89.7877ZM50.0866 62.6235C55.0617 61.562 58.4466 60.5492 60.2413 59.585C59.5566 62.826 59.2123 64.4466 59.2082 64.4466C53.67 67.2055 48.1663 68.3946 42.697 68.0138C47.672 66.6363 50.1353 64.8396 50.0866 62.6235ZM47.0481 39.3607C56.905 38.674 72.5108 40.9104 65.4614 45.7294C65.9962 44.8138 65.271 43.7747 63.2859 42.6119C65.4939 44.0866 65.4939 45.5816 63.2859 47.0968C63.0091 47.1557 62.7291 47.1983 62.4473 47.2243C62.5583 47.1583 62.6622 47.0809 62.7572 46.9934C62.8528 46.9097 62.9286 46.8057 62.979 46.689C63.0295 46.5723 63.0533 46.4459 63.0489 46.3189C63.0092 46.0563 62.8699 45.8191 62.66 45.6565C61.8068 45.0692 60.8026 44.74 59.7673 44.7085C59.9396 44.6069 60.0887 44.4703 60.2048 44.3074C60.2735 44.2189 60.3076 44.1085 60.3009 43.9967C60.2942 43.8849 60.2471 43.7793 60.1684 43.6997C60.1454 43.6804 60.1163 43.6698 60.0863 43.6698C60.0563 43.6698 60.0273 43.6804 60.0043 43.6997C59.9846 43.7201 59.9736 43.7473 59.9736 43.7757C59.9736 43.804 59.9846 43.8312 60.0043 43.8516C60.0552 43.8982 60.0866 43.9622 60.0922 44.031C60.0978 44.0997 60.0773 44.1681 60.0347 44.2223C59.8726 44.4233 59.664 44.5818 59.427 44.6842H58.9773C58.4402 44.6799 57.9071 44.5918 57.3973 44.4229C56.6863 44.1372 57.1663 42.8246 56.6316 43.9063C56.5953 43.9762 56.5811 44.0555 56.5909 44.1336C56.6007 44.2117 56.6339 44.285 56.6862 44.3439C56.8245 44.4991 57.0003 44.6162 57.1967 44.6842C57.7532 44.8711 58.3356 44.9695 58.9226 44.9758C60.6789 45.0427 61.8335 45.4316 62.3561 45.8874C62.5191 46.0097 62.6281 46.1906 62.66 46.3918C62.665 46.48 62.6495 46.5682 62.6147 46.6494C62.5799 46.7306 62.5267 46.8026 62.4594 46.8597C62.2168 47.0641 61.9327 47.2133 61.6269 47.2973C60.3893 47.3012 59.1541 47.1872 57.9381 46.957C54.2919 46.3493 49.9226 45.1703 42.4661 42.3385C36.5471 40.09 43.1224 39.6706 47.036 39.3911L47.0481 39.3607ZM64.556 46.5863C64.3555 46.7416 64.132 46.8646 63.8936 46.9509C64.1218 46.8434 64.3431 46.7216 64.556 46.5863ZM33.7273 53.5566C42.618 51.2048 50.3479 52.0131 55.0637 51.7335L40.9651 55.2885C48.3304 53.7207 53.749 52.5579 57.221 51.8003C57.2697 51.8363 57.3127 51.8793 57.3487 51.9279C57.4028 51.9915 57.4392 52.0683 57.4541 52.1505C57.4691 52.2327 57.462 52.3173 57.4337 52.3959C57.3449 52.6042 57.1943 52.7803 57.0023 52.9003C56.3642 53.3621 55.1062 53.745 53.3561 53.8118C52.7374 53.82 52.1233 53.9182 51.533 54.1035C51.3083 54.172 51.101 54.2881 50.9253 54.4438C50.6518 54.6991 50.7612 55.2338 50.8098 55.1002C50.9015 54.9273 51.0137 54.7661 51.144 54.6201C51.2939 54.4994 51.468 54.4123 51.6545 54.3648C52.1882 54.1998 52.7428 54.1118 53.3014 54.1035H53.7572C53.9559 54.2071 54.1189 54.368 54.2251 54.5654C54.2503 54.6317 54.2521 54.7048 54.2299 54.7722C54.2078 54.8397 54.1632 54.8975 54.1035 54.9361C54.0838 54.9565 54.0729 54.9837 54.0729 55.012C54.0729 55.0404 54.0838 55.0676 54.1035 55.088C54.1265 55.1073 54.1556 55.1178 54.1856 55.1178C54.2156 55.1178 54.2446 55.1073 54.2676 55.088C54.3634 55.0231 54.4346 54.9279 54.4699 54.8177C54.5052 54.7076 54.5024 54.5887 54.4621 54.4803C54.3871 54.32 54.2719 54.1819 54.1278 54.0792C55.2335 54.0272 56.3088 53.7014 57.2575 53.1312C57.5082 52.974 57.7037 52.7424 57.8166 52.4688C57.8566 52.3555 57.8664 52.2337 57.8451 52.1154C57.8238 51.9972 57.7721 51.8865 57.695 51.7943L57.6464 51.7396C58.6613 51.5208 59.4695 51.3324 60.138 51.1866C60.0043 52.5174 56.1211 56.4979 52.8456 58.242C49.0839 59.0077 46.8354 59.7855 42.2169 59.275C34.7422 58.4486 26.2283 55.562 33.7091 53.5931L33.7273 53.5566ZM69.764 46.641C78.4662 42.9948 89.6236 46.2642 84.1118 51.5937C80.5223 52.0313 75.9909 51.5411 70.5175 50.1231C69.0795 49.8212 67.6594 49.4398 66.2636 48.9806C67.8436 48.9158 71.8038 48.6869 78.1441 48.2939L66.0874 48.2331C67.2881 47.6379 68.5194 47.1064 69.7761 46.641H69.764ZM62.2406 55.6714C61.3048 54.2129 62.0644 51.2352 63.3831 50.5789C63.2453 50.736 63.1753 50.9415 63.1886 51.1501C63.2262 51.412 63.3633 51.6492 63.5715 51.8125C64.4246 52.3998 65.4289 52.729 66.4642 52.7605C66.2936 52.8619 66.1449 52.9962 66.0266 53.1555C65.9575 53.2442 65.9236 53.3553 65.9314 53.4675C65.9393 53.5797 65.9883 53.685 66.0691 53.7632C66.0905 53.7833 66.1188 53.7945 66.1481 53.7945C66.1775 53.7945 66.2057 53.7833 66.2271 53.7632C66.2464 53.7438 66.2573 53.7176 66.2573 53.6903C66.2573 53.6629 66.2464 53.6367 66.2271 53.6174C66.177 53.569 66.1463 53.5041 66.1407 53.4347C66.1351 53.3653 66.1551 53.2963 66.1968 53.2406C66.3623 53.0447 66.57 52.8888 66.8045 52.7848H67.2481C67.7852 52.7885 68.3184 52.8766 68.8281 53.0461C69.5391 53.3257 69.059 54.6444 69.5999 53.5627C69.6358 53.4916 69.6498 53.4115 69.6401 53.3325C69.6303 53.2535 69.5973 53.1792 69.5452 53.119C69.4045 52.9652 69.2266 52.8501 69.0286 52.7848C68.475 52.5949 67.8941 52.4963 67.3089 52.4931C65.5526 52.4202 64.3919 52.0374 63.8693 51.5755C63.7072 51.4524 63.5985 51.2719 63.5654 51.0711C63.5647 50.9838 63.5827 50.8974 63.6184 50.8177C63.654 50.738 63.7064 50.6669 63.772 50.6092C63.8466 50.536 63.9304 50.4727 64.0212 50.4209C70.2925 50.8669 76.5259 51.742 82.6776 53.04C82.0334 56.0117 72.9544 56.6863 62.2346 55.641L62.2406 55.6714ZM35.3256 42.8489C44.277 44.3925 59.2386 48.9806 57.4763 49.1994L56.9111 49.2662L36.4255 47.0299C44.7065 48.2696 50.4533 49.1204 53.666 49.5822C48.0873 50.0927 38.8442 50.7976 28.6166 51.8064C26.1433 52.0495 25.3836 52.8699 26.0582 49.3756C26.836 45.2797 29.9252 43.1123 35.3256 42.8732V42.8489ZM91.7445 58.1812C91.392 61.6876 92.0605 60.0833 88.5054 62.5931C82.9875 66.4885 75.8227 66.6951 69.6363 66.7862C65.2609 66.847 60.77 66.9138 58.8071 67.7829C56.0898 68.9815 53.2309 69.8289 50.2993 70.3048C35.7145 72.687 22.4667 70.7363 22.8374 52.165C22.8374 51.4843 22.8374 50.7551 22.8374 50.0988C22.9954 44.988 28.5801 41.591 33.2473 39.7679C35.7206 36.8023 43.25 35.7631 51.2048 36.0488C60.2048 36.3648 69.8794 38.3155 73.2339 41.0198C82.6107 41.2446 88.1347 43.0798 90.5108 45.4438C92.0726 46.9934 92.3886 48.2331 92.2975 50.9435C92.2063 53.0279 91.9025 56.589 91.7262 58.1812H91.7445Z" fill="white"/>
<path fill-rule="evenodd" clip-rule="evenodd" d="M1.8474 50.6458C6.22892 50.1171 7.66917 52.1529 6.93385 57.3669C6.58881 55.9591 5.95963 54.6367 5.08494 53.4809C4.21024 52.3251 3.10851 51.3603 1.8474 50.6458ZM5.34168 44.271C6.15457 45.0626 6.79126 46.0169 7.21013 47.0714C7.629 48.1259 7.82063 49.2569 7.77248 50.3905C9.44973 46.477 8.86634 44.7936 5.34168 44.271ZM0 59.2265C1.64517 59.6065 3.19498 60.3197 4.55375 61.3221C5.91253 62.3244 7.05142 63.5946 7.9001 65.0543C7.0554 58.9773 4.73398 57.1968 0 59.2265ZM2.32141 67.6127C6.12561 68.2691 8.36195 70.0435 10.6104 72.9727C9.23096 66.8957 6.96424 65.1516 2.32141 67.6127ZM3.95612 76.5156C8.42272 72.5412 12.0811 73.5682 15.235 79.8154C11.9717 77.2083 8.30726 76.1692 3.95612 76.5156ZM8.5868 85.0537C12.7604 83.6166 17.3331 83.8897 21.306 85.8134C16.4444 80.0706 12.3059 79.7364 8.5868 85.0537ZM16.6206 94.1024C20.8745 91.2705 24.9643 90.365 29.7651 91.1004C23.0197 86.652 18.9299 87.5575 16.6206 94.1024ZM25.1892 98.9275C26.4896 92.1213 30.3303 90.7053 37.6835 94.0659C35.3827 94.0083 33.0934 94.4084 30.9485 95.243C28.8036 96.0776 26.846 97.33 25.1892 98.9275ZM8.73872 39.1299C11.7347 40.3453 11.6982 42.1683 9.41935 45.3223C9.90551 43.0495 9.93589 41.19 8.73872 39.1299ZM12.1965 35.6234C13.0291 37.4465 12.8042 38.9111 12.1965 40.7828C14.3721 38.352 14.6273 36.8814 12.1965 35.6234ZM14.1594 51.6181C10.8718 50.7066 8.95749 51.6181 8.17964 54.4925C8.25256 53.6782 8.35587 52.8639 8.50172 52.0617C8.60503 51.4966 8.72657 50.9314 8.87242 50.3723C10.4188 48.7997 12.4828 47.8411 14.682 47.6741C12.3242 46.2582 10.6226 46.4891 9.39504 48.5735C9.63812 47.8443 9.91767 47.115 10.2276 46.3797C10.3977 45.9847 10.5801 45.5897 10.7684 45.1947C12.4397 44.2268 14.383 43.836 16.2985 44.0826C14.6415 42.4621 13.0777 42.2939 11.6071 43.5782C12.0203 42.8368 12.4639 42.1015 12.944 41.3966L13.2357 40.9651C14.75 40.2453 16.4627 40.0569 18.0973 40.4303C16.8576 38.9475 15.5774 38.6619 14.2566 39.5735C14.6577 39.0752 15.071 38.6012 15.472 38.1515C17.4592 37.9631 18.6017 35.666 19.9022 34.0312C17.8238 35.1373 15.8367 34.7726 15.0953 37.6774C14.1031 38.7248 13.2024 39.8552 12.4032 41.0563C11.3253 42.6631 10.3976 44.3658 9.63204 46.1427C8.82659 48.0084 8.23537 49.9595 7.86971 51.9584C7.51614 53.9186 7.37555 55.9113 7.4504 57.9017C7.81837 66.142 10.9918 74.009 16.4444 80.1982C22.0519 86.5977 29.4369 91.184 37.6592 93.3731C43.3533 94.9349 49.6856 98.8972 52.244 104.445C52.4563 104.523 52.6893 104.522 52.901 104.443C53.1127 104.364 53.2892 104.212 53.3986 104.014C50.5485 97.8397 43.9853 94.4852 37.7625 92.7715L37.568 92.7108C34.4758 89.5064 32.642 85.295 32.4026 80.8485C29.4248 85.4994 30.0568 89.103 34.2986 91.6594C32.7056 91.0813 31.1473 90.4118 29.6315 89.654C27.1559 86.0359 26.0289 81.6635 26.4471 77.2995C23.125 81.0996 22.9224 84.4946 25.8394 87.4845C24.358 86.537 22.9373 85.4978 21.5855 84.3731C20.1088 80.3988 20.0845 76.7951 21.6402 72.523C17.0581 75.5007 16.4383 78.6486 19.6895 82.6898C18.7185 81.7718 17.7955 80.8043 16.9244 79.7911C16.5355 79.3414 16.1527 78.8795 15.788 78.4116C15.314 74.5345 16.0372 71.5506 18.3404 68.0321C13.4788 69.7701 12.3424 72.3346 14.5848 76.8012C13.5229 75.2893 12.5743 73.7009 11.7468 72.049C12.1905 68.5851 13.734 65.9355 16.4504 63.4014C11.7833 63.8693 10.0392 66.1543 11.1634 70.8396C10.2266 68.78 9.4899 66.6351 8.96358 64.4345C9.64929 61.1758 11.4931 58.2762 14.1533 56.2731C10.4281 56.3278 8.52603 57.841 8.32549 60.922C8.19109 59.914 8.10793 58.8999 8.07633 57.8835C8.07633 57.5675 8.07633 57.2758 8.07633 56.9415C9.37196 54.4673 11.5395 52.5617 14.1594 51.5938V51.6181Z" fill="white"/>
<path fill-rule="evenodd" clip-rule="evenodd" d="M113.5 50.6458C109.119 50.1171 107.678 52.1529 108.42 57.3669C108.762 55.9589 109.39 54.6361 110.264 53.4802C111.138 52.3242 112.239 51.3595 113.5 50.6458ZM110.006 44.271C109.193 45.0626 108.556 46.0169 108.137 47.0714C107.719 48.1259 107.527 49.2569 107.575 50.3905C105.898 46.477 106.481 44.7936 110.006 44.271ZM115.348 59.2265C113.697 59.6027 112.141 60.3142 110.777 61.3167C109.413 62.3192 108.269 63.5914 107.417 65.0543C108.268 58.9773 110.583 57.1968 115.348 59.2265ZM113.026 67.6127C109.228 68.2691 106.986 70.0435 104.737 72.9727C106.117 66.8957 108.383 65.1516 113.026 67.6127ZM111.391 76.5156C106.925 72.5412 103.266 73.5682 100.113 79.8154C103.376 77.2083 107.04 76.1692 111.391 76.5156ZM106.767 85.0537C102.591 83.6163 98.0165 83.8894 94.0416 85.8134C98.9032 80.0706 103.042 79.7364 106.767 85.0537ZM98.727 94.1024C94.4731 91.2705 90.3832 90.365 85.5824 91.1004C92.3279 86.652 96.4238 87.5575 98.727 94.1024ZM90.1584 98.9275C88.8579 92.1213 85.0172 90.7053 77.6701 94.0659C79.97 94.0081 82.2585 94.4082 84.4024 95.2428C86.5463 96.0774 88.5029 97.3299 90.1584 98.9275ZM106.609 39.1299C103.613 40.3453 103.649 42.1683 105.934 45.3223C105.448 43.0495 105.412 41.19 106.609 39.1299ZM103.151 35.6234C102.318 37.4465 102.543 38.9111 103.151 40.7828C100.975 38.352 100.72 36.8814 103.151 35.6234ZM101.194 51.6181C104.476 50.7066 106.39 51.6181 107.168 54.4925C107.095 53.6782 106.992 52.8639 106.846 52.0617C106.743 51.4966 106.621 50.9314 106.475 50.3723C104.929 48.7997 102.865 47.8411 100.666 47.6741C103.023 46.2582 104.725 46.4891 105.953 48.5735C105.709 47.8443 105.436 47.115 105.12 46.3797C104.95 45.9847 104.774 45.5897 104.579 45.1947C102.908 44.2268 100.965 43.836 99.049 44.0826C100.71 42.4621 102.274 42.2939 103.74 43.5782C103.327 42.8368 102.884 42.1015 102.404 41.3966L102.112 40.9651C100.598 40.2439 98.8847 40.0555 97.2502 40.4303C98.4656 38.9475 99.7438 38.6619 101.085 39.5735C100.684 39.0752 100.271 38.6012 99.8694 38.1515C97.8822 37.9631 96.7398 35.666 95.4393 34.0312C97.5176 35.1373 99.5048 34.7726 100.246 37.6774C101.239 38.7262 102.141 39.8565 102.944 41.0563C104.018 42.6646 104.944 44.3671 105.709 46.1427C106.514 48.0092 107.107 49.9599 107.478 51.9584C107.826 53.9192 107.965 55.9115 107.891 57.9017C107.523 66.142 104.35 74.009 98.8971 80.1982C93.2896 86.5977 85.9046 91.184 77.6823 93.3731C71.9882 94.9349 65.6559 98.8972 63.0975 104.445C62.8852 104.523 62.6522 104.522 62.4405 104.443C62.2288 104.364 62.0523 104.212 61.9429 104.014C64.793 97.8397 71.3561 94.4852 77.579 92.7715L77.7735 92.7108C80.8656 89.5064 82.6995 85.295 82.9389 80.8485C85.9166 85.4994 85.2846 89.103 81.0429 91.6594C82.6359 91.0813 84.1942 90.4118 85.71 89.654C88.1805 86.0253 89.2968 81.6436 88.864 77.2752C92.1861 81.0753 92.3886 84.4704 89.4717 87.4602C90.9531 86.5127 92.3738 85.4735 93.7256 84.3488C95.2271 80.5378 95.2076 76.2957 93.6709 72.4987C98.2529 75.4764 98.8728 78.6243 95.6216 82.6655C96.5926 81.7475 97.5155 80.78 98.3866 79.7667C98.7817 79.317 99.1584 78.8552 99.523 78.3873C99.9971 74.5102 99.2739 71.5263 96.9707 68.0078C101.832 69.7458 102.975 72.3103 100.726 76.7769C101.79 75.2651 102.741 73.6767 103.57 72.0246C103.121 68.5608 101.577 65.9112 98.8607 63.3771C103.528 63.845 105.272 66.13 104.148 70.8153C105.087 68.7568 105.824 66.6116 106.348 64.4102C105.662 61.1515 103.818 58.2519 101.158 56.2488C104.883 56.3035 106.785 57.8166 106.992 60.8977C107.119 59.8889 107.204 58.8679 107.235 57.8592C107.235 57.5432 107.235 57.2515 107.235 56.9172C105.944 54.4607 103.793 52.5657 101.194 51.5938V51.6181Z" fill="white"/>
<path fill-rule="evenodd" clip-rule="evenodd" d="M35.9941 23.6091C35.0096 23.9495 34.0332 24.306 33.065 24.6787C32.275 23.285 31.4647 21.8954 30.6342 20.5099C32.4573 21.4761 34.2804 22.5274 36.0245 23.6091H35.9941ZM42.7517 16.2377C42.4783 16.73 42.1987 17.2283 41.9313 17.7327C41.1048 19.2702 40.3574 20.838 39.6524 22.4424C43.0905 21.4323 46.6012 20.6888 50.1535 20.2182L42.7517 16.2377ZM57.4884 8.82381L51.4479 20.0723C53.4277 19.859 55.4182 19.7596 57.4094 19.7746C59.4148 19.7595 61.4195 19.8589 63.4135 20.0723L57.4884 8.82381ZM72.1462 16.2317L64.7018 20.2243C68.2482 20.6942 71.753 21.4378 75.1847 22.4484C74.972 21.944 72.4196 16.7361 72.4196 16.7361L72.1462 16.2317ZM84.2455 20.4856C83.3886 21.8711 82.55 23.2567 81.7418 24.6544C80.7897 24.2817 79.8174 23.9251 78.8248 23.5848C79.311 23.2871 84.0024 20.6253 84.2576 20.4856H84.2455ZM92.808 11.9109C92.3577 11.9044 91.9232 12.0767 91.5997 12.3899C91.2762 12.7032 91.0901 13.1319 91.0821 13.5821C91.0765 13.7667 91.0991 13.9512 91.149 14.129C85.6797 16.0494 78.5756 20.4916 78.5756 20.4916C77.4313 17.8169 76.1431 15.2061 74.7167 12.6705C74.9281 12.5529 75.1052 12.3824 75.2309 12.1757C75.3566 11.9691 75.4265 11.7334 75.4338 11.4916C75.4505 11.3093 75.4297 11.1255 75.3727 10.9515C75.3157 10.7775 75.2238 10.617 75.1025 10.4799C74.9813 10.3427 74.8332 10.2318 74.6675 10.154C74.5018 10.0761 74.322 10.0329 74.139 10.0271C73.956 10.0213 73.7738 10.053 73.6035 10.1202C73.4332 10.1874 73.2784 10.2887 73.1487 10.4179C73.019 10.547 72.917 10.7014 72.8491 10.8714C72.7812 11.0414 72.7488 11.2235 72.7539 11.4065C72.747 11.6425 72.7992 11.8765 72.9058 12.0872L65.3399 16.1405L58.5337 3.21473C58.7904 3.06534 59.0049 2.85308 59.1569 2.59793C59.3089 2.34278 59.3935 2.05313 59.4027 1.75626C59.4164 1.31465 59.2541 0.885678 58.9515 0.563725C58.649 0.241771 58.2309 0.0531978 57.7893 0.0394982C57.3476 0.0257986 56.9187 0.188095 56.5967 0.490674C56.2748 0.793253 56.0862 1.21133 56.0725 1.65294C56.0585 1.96608 56.1304 2.27708 56.2803 2.55234C56.4303 2.8276 56.6526 3.05666 56.9233 3.21473L49.9712 16.1648L42.4539 12.1115C42.5529 11.9241 42.605 11.7156 42.6059 11.5038C42.6172 11.1492 42.4871 10.8047 42.2444 10.546C42.0016 10.2872 41.666 10.1356 41.3115 10.1243C40.9569 10.113 40.6124 10.243 40.3536 10.4858C40.0949 10.7285 39.9433 11.0641 39.932 11.4187C39.9203 11.6734 39.9794 11.9263 40.1028 12.1495C40.2261 12.3726 40.4089 12.5572 40.6308 12.6827C39.1798 15.2124 37.8633 17.817 36.6869 20.4856C36.6869 20.4856 29.6497 16.0433 24.1743 14.123C24.2186 13.9792 24.2412 13.8297 24.2412 13.6793C24.2535 13.4572 24.2216 13.2349 24.1474 13.0252C24.0732 12.8155 23.9582 12.6225 23.8091 12.4575C23.6599 12.2925 23.4795 12.1587 23.2783 12.0638C23.0771 11.969 22.8591 11.9149 22.6368 11.9048C22.1876 11.9 21.7547 12.0729 21.4325 12.386C21.1103 12.6991 20.9251 13.1268 20.9171 13.576C20.9048 13.7981 20.9366 14.0205 21.0108 14.2302C21.085 14.4399 21.2 14.6328 21.3492 14.7978C21.4983 14.9628 21.6788 15.0966 21.88 15.1915C22.0812 15.2864 22.2992 15.3404 22.5214 15.3505C22.8839 15.3636 23.2399 15.2521 23.5302 15.0345C25.1102 17.4167 28.3918 22.4424 31.0656 27.3465C40.4728 23.4147 49.9044 21.4883 57.6282 21.5673C65.3764 21.4883 74.7593 23.3904 84.13 27.3404C86.8647 22.4363 90.207 17.4045 91.7931 15.0284C92.0551 15.2239 92.3718 15.3324 92.6986 15.3384C93.1547 15.3537 93.5982 15.1872 93.9316 14.8755C94.2649 14.5638 94.4608 14.1324 94.4761 13.6763C94.4914 13.2202 94.3249 12.7767 94.0132 12.4433C93.7015 12.11 93.2702 11.9141 92.814 11.8988L92.808 11.9109ZM84.6466 28.9751C76.1534 25.0927 66.9242 23.0833 57.5857 23.0833C48.2472 23.0833 39.018 25.0927 30.5248 28.9751C30.193 29.1283 29.9318 29.4018 29.7941 29.7403C29.6565 30.0788 29.6526 30.457 29.7834 30.7982C29.8487 30.9662 29.9472 31.1192 30.0729 31.2483C30.1986 31.3774 30.349 31.4798 30.5152 31.5496C30.6813 31.6193 30.8598 31.6549 31.04 31.6543C31.2201 31.6536 31.3983 31.6167 31.564 31.5457C39.7269 27.817 48.5962 25.8873 57.5705 25.8873C66.5447 25.8873 75.414 27.817 83.577 31.5457C83.7435 31.6157 83.9224 31.6518 84.1031 31.6517C84.2837 31.6516 84.4626 31.6154 84.629 31.5452C84.7955 31.475 84.9462 31.3722 85.0724 31.2429C85.1985 31.1135 85.2976 30.9603 85.3636 30.7922C85.5006 30.4543 85.5026 30.0767 85.3691 29.7374C85.2357 29.3981 84.977 29.1231 84.6466 28.9691V28.9751Z" fill="white"/>
<path fill-rule="evenodd" clip-rule="evenodd" d="M43.7727 75.8167L42.5694 79.5479L38.6558 79.5358L41.828 81.839L40.6126 85.5581L43.7727 83.2488L46.9388 85.5581L45.7234 81.839L48.8956 79.5358L44.9759 79.5479L43.7727 75.8167Z" fill="white"/>
<path fill-rule="evenodd" clip-rule="evenodd" d="M57.5553 75.8167L56.352 79.5479L52.4324 79.5358L55.6046 81.839L54.3892 85.5581L57.5553 83.2488L60.7214 85.5581L59.4999 81.839L62.6782 79.5358L58.7585 79.5479L57.5553 75.8167Z" fill="white"/>
<path fill-rule="evenodd" clip-rule="evenodd" d="M71.3318 75.8167L70.1286 79.5479L66.2089 79.5358L69.3872 81.839L68.1657 85.5581L71.3318 83.2488L74.498 85.5581L73.2765 81.839L76.4547 79.5358L72.5351 79.5479L71.3318 75.8167Z" fill="white"/>
</g>
<defs>
<clipPath id="clip0_8_6989">
<rect width="319" height="104.47" fill="white"/>
</clipPath>
</defs>
</svg>
